<svg width="32" height="32" viewBox="0 0 32 32" fill="none" xmlns="http://www.w3.org/2000/svg">
<mask id="mask0_106_339" style="mask-type:alpha" maskUnits="userSpaceOnUse" x="0" y="0" width="32" height="32">
<rect width="32" height="32" fill="#D9D9D9"/>
</mask>
<g mask="url(#mask0_106_339)">
<path d="M5.55943 27.3073C4.57487 27.3073 3.73984 26.9645 3.05433 26.279C2.36882 25.5935 2.02606 24.7585 2.02606 23.7739V8.22611C2.02606 7.24155 2.36882 6.40652 3.05433 5.721C3.73984 5.03549 4.57487 4.69274 5.55943 4.69274H26.4406C27.4251 4.69274 28.2602 5.03549 28.9457 5.721C29.6312 6.40652 29.9739 7.24155 29.9739 8.22611V23.7739C29.9739 24.7585 29.6312 25.5935 28.9457 26.279C28.2602 26.9645 27.4251 27.3073 26.4406 27.3073H5.55943ZM26.4406 11.4769L16.9449 17.5406C16.7985 17.6324 16.6447 17.7012 16.4837 17.7471C16.3226 17.793 16.1614 17.816 16 17.816C15.8386 17.816 15.6774 17.793 15.5163 17.7471C15.3553 17.7012 15.2015 17.6324 15.0551 17.5406L5.55943 11.4769V23.7739H26.4406V11.4769ZM16 14.8928L26.4406 8.22611H5.55943L16 14.8928ZM5.55943 9.5301V9.57217V8.22611V9.57541V9.5301Z" fill="#2C4245"/>
</g>
</svg>
